<?xml version="1.0" ?><svg height="58px" version="1.1" viewBox="0 0 52 58" width="52px" xmlns="http://www.w3.org/2000/svg" xmlns:xlink="http://www.w3.org/1999/xlink"><title/><desc/><defs/><g fill="none" fill-rule="evenodd" id="Page-1" stroke="none" stroke-width="1"><g fill-rule="nonzero" id="030---Holly"><path d="M1.65,56.36 L1.63,56.38" fill="#81CB97" id="Shape"/><path d="M50.35,56.36 C49.95,56.09 44.47,52.53 39,58 C39,58 36.56006,47.45 29.26,49.88 C29.8400993,46.5052593 29.4410152,43.0349625 28.11,39.88 L25.88,37.17 L24.26,39.18 C21.56,43.95 22.74,49.88 22.74,49.88 C15.43994,47.45 13,58 13,58 C7.53,52.53 2.05,56.09 1.65,56.36 C1.9199,55.96 5.48,50.48 0.01,45.01 C0.01,45.01 10.56,42.57 8.13,35.26995 C8.13,35.26995 13.99,36.43995 18.75,33.79995 L21.5,31.57995 L20.87,25.12995 C19.5351515,22.9265557 17.7658967,21.0178314 15.66992,19.51995 C22.56006,16.06995 16.81006,6.88995 16.81006,6.88995 C24.85,6.89 26,0 26,0 C26,0 27.15,6.89 35.18994,6.89 C35.18994,6.89 29.43994,16.07 36.33008,19.52 C34.5742984,20.7703563 33.0426895,22.3087273 31.80008,24.07 L29.5,30.6 L32.93994,33.61 L32.94994,33.61 C37.74994,36.49 43.86994,35.27 43.86994,35.27 C41.43994,42.57 51.99,45.01 51.99,45.01 C46.52,50.48 50.08008,55.96 50.35,56.36 Z" fill="#81CB97" id="Shape"/><path d="M50.37,56.38 L50.35,56.36" fill="#81CB97" id="Shape"/><path d="M28.83984,16.52637 C27.9224283,16.8684284 27.114145,17.4513856 26.5,18.21393 L26.5,14 C26.5838249,12.3913422 27.6372417,10.9952234 29.16113,10.47314 C29.4225733,10.3844182 29.5625918,10.1005533 29.47387,9.83911 C29.3851482,9.57766668 29.1012833,9.43764822 28.83984,9.52637 C27.9224283,9.86842839 27.114145,10.4513856 26.5,11.21393 L26.5,8 C26.5,7.72385763 26.2761424,7.5 26,7.5 C25.7238576,7.5 25.5,7.72385763 25.5,8 L25.5,11.21393 C24.885855,10.4513856 24.0775717,9.86842839 23.16016,9.52637 C22.9904136,9.46713352 22.801933,9.50359049 22.6665195,9.62185273 C22.5311059,9.74011496 22.4696099,9.92197284 22.5054582,10.098148 C22.5413065,10.2743232 22.6689793,10.4176888 22.83984,10.47363 C24.3558762,11.0060103 25.4044666,12.3960462 25.5,14 L25.5,18.21393 C24.885855,17.4513856 24.0775717,16.8684284 23.16016,16.52637 C22.9904136,16.4671335 22.801933,16.5035905 22.6665195,16.6218527 C22.5311059,16.740115 22.4696099,16.9219728 22.5054582,17.098148 C22.5413065,17.2743232 22.6689793,17.4176888 22.83984,17.47363 C24.3558762,18.0060103 25.4044666,19.3960462 25.5,21 L25.5,30.1001 C25.5,30.3762424 25.7238576,30.6001 26,30.6001 C26.2761424,30.6001 26.5,30.3762424 26.5,30.1001 L26.5,21 C26.5838249,19.3913422 27.6372417,17.9952234 29.16113,17.47314 C29.4225733,17.3844182 29.5625917,17.1005533 29.47387,16.83911 C29.3851482,16.5776667 29.1012833,16.4376482 28.83984,16.52637 L28.83984,16.52637 Z" fill="#5D9069" id="Shape"/><circle cx="31" cy="29" fill="#943F51" id="Oval" r="5"/><circle cx="22" cy="30" fill="#943F51" id="Oval" r="5"/><path d="M22.44336,35.56641 C22.3496222,35.4726255 22.2224583,35.4199339 22.08986,35.4199339 C21.9572617,35.4199339 21.8300978,35.4726255 21.73636,35.56641 L16.12736,41.1756 C14.9302179,42.2514642 13.1997957,42.4928222 11.75395,41.7856 C11.5062503,41.6634374 11.2064176,41.7652053 11.084255,42.012905 C10.9620924,42.2606047 11.0638603,42.5604374 11.31156,42.6826 C12.0301507,43.017627 12.8136386,43.1904912 13.60649,43.18894 C13.7869357,43.1876795 13.9671881,43.1768643 14.14649,43.15654 L11.18067,46.12236 L11.17967,46.12303 C9.98298121,47.2009113 8.25129194,47.4432686 6.80467,46.73533 C6.55697029,46.6131674 6.25713765,46.7149353 6.13497503,46.962635 C6.01281241,47.2103347 6.11458031,47.5101674 6.36228,47.63233 C7.08057119,47.9672702 7.86373659,48.1401367 8.65628,48.13868 C8.83698402,48.1374269 9.01749434,48.1265884 9.19705,48.10621 L6.93655,50.36671 C6.8081214,50.4925699 6.75717624,50.6777039 6.80313155,50.8515507 C6.84908685,51.0253976 6.98486241,51.1611731 7.15870926,51.2071285 C7.33255611,51.2530838 7.51769011,51.2021386 7.64355,51.07371 L9.91675,48.80052 C9.81186981,49.7740118 9.97117819,50.7577803 10.37793,51.64842 C10.5007545,51.895024 10.7998385,51.9959193 11.0469461,51.8741112 C11.2940537,51.752303 11.3961797,51.453637 11.27539,51.20603 C10.5671214,49.7607004 10.808,48.0300185 11.88403,46.83303 L14.86646,43.85055 C14.761834,44.8240011 14.921305,45.8076635 15.32812,46.6982 C15.451223,46.9445125 15.7502899,47.0449566 15.9971168,46.9228882 C16.2439437,46.8008197 16.3456418,46.5021769 16.22461,46.25484 C15.5285422,44.8065119 15.7699381,43.0818855 16.83691,41.88033 L16.83752,41.87942 L22.44336,36.27342 C22.5371427,36.1796792 22.5898328,36.0525142 22.5898328,35.919915 C22.5898328,35.7873158 22.5371427,35.6601508 22.44336,35.56641 Z" fill="#5D9069" id="Shape"/><path d="M45.86426,46.9624 C45.7416335,46.715068 45.4419158,46.6137066 45.19434,46.73584 C43.7459213,47.4307153 42.0220417,47.1892027 40.82034,46.12305 L40.81888,46.12205 L37.8533,43.15654 C38.0326955,43.1768655 38.2130411,43.1876806 38.39358,43.18894 C39.1864314,43.1904912 39.9699193,43.017627 40.68851,42.6826 C40.9348225,42.559497 41.0352666,42.2604301 40.9131982,42.0136032 C40.7911297,41.7667763 40.4924869,41.6650782 40.24515,41.78611 C38.7963527,42.4806994 37.0723612,42.2392263 35.87015,41.17332 L31.74315,37.04632 C31.5473523,36.8544384 31.2335524,36.8560233 31.0397029,37.0498729 C30.8458533,37.2437224 30.8442684,37.5575223 31.03615,37.75332 L35.16315,41.88032 C36.2416527,43.0769137 36.4840568,44.8091306 35.77545,46.25581 C35.654087,46.5032421 35.7558914,46.8022214 36.0030329,46.9241753 C36.2501743,47.0461291 36.549396,46.9450393 36.67194,46.69819 C37.0787531,45.807738 37.2382249,44.8241531 37.1336,43.85078 L40.117,46.83424 C41.1921766,48.0311946 41.432644,49.7611893 40.72467,51.206 C40.603984,51.4541532 40.7065609,51.7531812 40.95416,51.875 C41.2012103,51.9965284 41.5000142,51.8951856 41.62216,51.64844 C42.0289125,50.7578218 42.1882212,49.7740723 42.08334,48.8006 L44.35654,51.07373 C44.5523377,51.2656116 44.8661376,51.2640267 45.0599871,51.0701771 C45.2538367,50.8763276 45.2554216,50.5625277 45.06354,50.36673 L42.803,48.1062 C42.9825557,48.1265784 43.163066,48.1374169 43.34377,48.13867 C44.1363134,48.1401267 44.9194788,47.9672602 45.63777,47.63232 C45.75665,47.5735267 45.8473014,47.4699115 45.8897777,47.3442736 C45.932254,47.2186358 45.9230749,47.0812693 45.86426,46.9624 Z" fill="#5D9069" id="Shape"/><circle cx="27" cy="35" fill="#E76573" id="Oval" r="5"/><circle cx="27.5" cy="34.5" fill="#FE9189" id="Oval" r="1.5"/><circle cx="31.5" cy="27.5" fill="#E07585" id="Oval" r="1.5"/><circle cx="21.5" cy="28.5" fill="#E07585" id="Oval" r="1.5"/></g></g></svg>